HIERARCHY
ROOT Hips
{
  OFFSET 0 0 0
  CHANNELS 6 Xposition Yposition Zposition Zrotation Yrotation Xrotation
  JOINT LeftThigh
  {
    OFFSET 8.409438 0 -5.917753
    CHANNELS 3 Zrotation Yrotation Xrotation
    JOINT LeftLeg
    {
      OFFSET 0 0 -42.358652
      CHANNELS 3 Zrotation Yrotation Xrotation
      JOINT LeftFoot
      {
        OFFSET 0 0 -39.357303
        CHANNELS 3 Zrotation Yrotation Xrotation
      }
    }
  }
  JOINT RightThigh
  {
    OFFSET -8.409438 0 -5.917753
    CHANNELS 3 Zrotation Yrotation Xrotation
    JOINT RightLeg
    {
      OFFSET 0 0 -42.358652
      CHANNELS 3 Zrotation Yrotation Xrotation
      JOINT RightFoot
      {
        OFFSET 0 0 -39.357303
        CHANNELS 3 Zrotation Yrotation Xrotation
      }
    }
  }
  JOINT SpineLow
  {
    OFFSET 0 0 4.719101
    CHANNELS 3 Zrotation Yrotation Xrotation
    JOINT SpineMid
    {
      OFFSET 0 0 12.899191
      CHANNELS 3 Zrotation Yrotation Xrotation
      JOINT Chest
      {
        OFFSET 0 0 12.899191
        CHANNELS 3 Zrotation Yrotation Xrotation
        JOINT LeftShoulder
        {
          OFFSET 7.550562 1.41573 9.438202
          CHANNELS 3 Zrotation Yrotation Xrotation
          JOINT LeftArm
          {
            OFFSET 9.155056 0 4.247191
            CHANNELS 3 Zrotation Yrotation Xrotation
            JOINT LeftForearm
            {
              OFFSET 0 0 25.771955
              CHANNELS 3 Zrotation Yrotation Xrotation
              JOINT LeftHand
              {
                OFFSET 0 0 25.197169
                CHANNELS 3 Zrotation Yrotation Xrotation
              }
            }
          }
        }
        JOINT RightShoulder
        {
          OFFSET -7.550562 1.41573 9.438202
          CHANNELS 3 Zrotation Yrotation Xrotation
          JOINT RightArm
          {
            OFFSET -9.155056 0 4.247191
            CHANNELS 3 Zrotation Yrotation Xrotation
            JOINT RightForearm
            {
              OFFSET 0 0 -25.771955
              CHANNELS 3 Zrotation Yrotation Xrotation
              JOINT RightHand
              {
                OFFSET 0 0 -25.197169
                CHANNELS 3 Zrotation Yrotation Xrotation
              }
            }
          }
        }
        JOINT Neck
        {
          OFFSET 0 0 15.101124
          CHANNELS 3 Zrotation Yrotation Xrotation
          JOINT Head
          {
            OFFSET 0 0 11.325843
            CHANNELS 3 Zrotation Yrotation Xrotation
            End Site
            {
              OFFSET 0 0 14.157303
            }
          }
        }
      }
    }
  }
}
MOTION
Frames: 18
Frame Time: 0.0
0.0  89.887642  0.0  7.531594  25.671803  -87.205809  11.266254  -38.443753  3.790089  -18.855218  40.851302  31.787565  1.926844  0.258004  0.262736  -26.265362  -1.057633  -44.693471  19.714123  13.260763  74.705706  -5.864868  1.317345  -0.370249  -1.542317  0.065151  -0.100136  -4.216041  0.171616  -0.277737  -4.216041  0.171616  -0.277737  -4.552537  26.703719  9.315751  130.623543  43.3519  -142.113225  -19.277779  0.14567  69.612345  82.820322  3.066496  12.970516  -0.789299  1.813321  18.758282  22.079765  58.811945  -25.151906  -12.358368  -9.310964  -80.245123  78.547721  8.726426  -9.066741  -10.659923  3.345849  4.85277  -8.019849  2.425812  3.698299  
0.0  89.887642  0.0  7.743637  25.799589  -87.413626  8.113805  -38.09585  5.638317  -17.177168  41.574699  31.016503  3.009535  -0.012435  0.73861  -27.001056  -0.123727  -44.879794  19.163824  12.187309  74.481423  -6.000431  1.332983  -0.245217  -1.513063  0.257952  0.138666  -4.134459  0.71344  0.36274  -4.134459  0.71344  0.36274  -5.096338  25.512763  8.212705  131.522483  44.229129  -141.19394  -18.862192  0.853496  68.912323  82.863301  3.201939  13.374537  -1.648566  0.158473  17.203312  23.939012  58.930751  -23.41072  -11.980229  -9.083438  -80.212067  78.899328  8.76149  -9.055265  -10.835832  2.888561  4.530925  -8.147104  2.087006  3.450018  
0.0  89.887642  0.0  7.418672  25.611839  -87.552769  3.980915  -37.463003  7.427233  -12.000109  41.164018  32.9687  2.48673  -0.159416  0.486324  -27.271611  0.317953  -45.059645  18.567468  11.563982  74.322665  -5.952601  1.294855  -0.221159  -1.524427  0.313658  0.327152  -4.162763  0.877561  0.874109  -4.162763  0.877561  0.874109  -5.078465  24.487907  7.011161  131.591484  44.629112  -140.732863  -18.567122  0.626714  68.40723  83.071401  3.253236  13.82621  -1.725791  -1.166683  15.77411  25.306089  59.036838  -21.880882  -11.677114  -8.614326  -80.245003  79.309269  8.780026  -9.001681  -10.620818  2.675474  4.077313  -7.982439  1.936547  3.105071  
0.0  89.887642  0.0  6.9903  24.965349  -87.852742  1.355359  -36.454248  8.843585  -8.323048  40.095059  34.609647  1.970033  -0.023621  0.157293  -26.958019  0.430477  -44.874116  18.158289  11.558799  74.039263  -5.761143  1.240636  -0.189229  -1.546336  0.261436  0.41121  -4.222331  0.740535  1.106804  -4.222331  0.740535  1.106804  -4.272323  24.091171  6.270456  130.909683  44.592392  -140.980998  -18.664075  0.139636  68.068982  83.30207  3.171519  14.296283  -1.14749  -1.527688  15.07027  26.511874  58.941915  -20.494023  -11.686248  -7.916683  -80.189533  79.544799  8.755384  -9.042529  -10.072318  2.900831  3.83423  -7.571182  2.113217  2.923848  
0.0  89.887642  0.0  6.789648  24.394961  -88.142883  0.668848  -35.707284  9.461876  -8.073167  39.793244  34.466903  2.543439  0.083483  0.254662  -26.7908  0.352911  -44.602894  18.094769  11.906519  73.687764  -5.327364  1.1343  -0.128478  -1.565644  0.187519  0.398348  -4.276396  0.53808  1.076204  -4.276396  0.53808  1.076204  -3.534678  24.112271  6.055068  129.99474  44.231853  -141.623381  -19.047539  -0.519529  67.764997  83.412023  2.984583  14.621983  -0.511936  -1.058988  15.128389  27.342422  58.583201  -19.477936  -11.894154  -7.310264  -80.108527  79.588244  8.680818  -9.196424  -9.531237  3.395928  3.868702  -7.168184  2.48746  2.954549  
0.0  89.887642  0.0  6.721662  24.044852  -88.260062  1.466695  -35.674731  9.321608  -9.445023  40.197093  33.758561  3.319695  0.049646  0.49927  -27.109248  0.057058  -44.41712  18.353234  12.191393  73.221211  -5.173152  1.203427  -0.030319  -1.618185  0.125792  0.330508  -4.421375  0.365763  0.89454  -4.421375  0.365763  0.894541  -2.698834  24.208664  6.245106  129.004794  43.842056  -142.284586  -19.608857  -1.205834  67.593277  83.331313  2.807559  14.63369  0.260915  -0.256729  15.58657  27.816999  58.150348  -18.815679  -12.089751  -7.104414  -80.047183  79.59784  8.559006  -9.306431  -9.001635  3.842234  3.97898  -6.774073  2.823958  3.040568  
0.0  89.887642  0.0  6.699894  23.710507  -88.529708  2.792509  -35.929324  9.180418  -10.695153  40.368233  33.368144  3.361599  0.029423  0.657275  -27.348835  -0.249436  -43.936463  18.59945  12.393258  72.631012  -5.242665  1.273043  0.013466  -1.709209  0.063126  0.252885  -4.671245  0.190313  0.686382  -4.671245  0.190313  0.686381  -1.608519  24.405866  6.673596  128.464064  43.453009  -142.742283  -20.305005  -1.607874  67.603665  83.064382  2.735139  14.56018  1.495419  0.55635  16.493816  27.537247  57.841555  -18.670371  -12.098848  -7.23652  -79.951782  79.600966  8.410927  -9.325955  -8.330291  4.317121  4.134013  -6.274341  3.182394  3.158681  
0.0  89.887642  0.0  6.614771  23.320779  -88.838173  4.166508  -36.090433  9.128865  -11.147332  40.100225  33.552046  3.069995  0.00945  0.71767  -27.505925  -0.410199  -43.541168  18.752578  12.404191  72.150527  -5.198816  1.399996  0.019174  -1.691161  0.019218  0.232804  -4.622387  0.068775  0.634646  -4.622387  0.068775  0.634646  -1.319122  24.55898  6.832422  128.434506  43.334281  -142.964262  -20.38992  -1.646996  67.745554  82.547884  2.76176  14.084554  1.830899  1.136791  16.844434  28.032173  57.477374  -18.079473  -12.022926  -7.487172  -79.770164  79.480109  8.278884  -9.372301  -8.025692  4.569191  4.107017  -6.047152  3.373861  3.139387  
0.0  89.887642  0.0  6.461668  22.971427  -89.113052  5.518977  -36.132048  8.753885  -11.034967  39.637633  34.282896  2.801977  0.034921  0.784853  -27.505302  -0.418277  -43.155455  18.690074  12.364013  71.6065  -5.240981  1.467696  0.047986  -1.620689  -0.008329  0.191902  -4.430026  -0.0099  0.524832  -4.430026  -0.0099  0.524832  -1.508838  24.650424  7.194825  129.054154  43.391261  -142.738177  -20.154692  -1.502676  67.566487  82.137191  2.52715  13.681186  1.794677  1.400287  17.337389  27.963543  57.176856  -17.898257  -11.723062  -7.836186  -79.571426  79.341945  8.177232  -9.444737  -7.986008  4.720019  4.118073  -6.018297  3.48713  3.149245  
0.0  89.887642  0.0  6.276403  22.777772  -89.383725  6.217453  -36.215423  8.452646  -10.815683  39.4157  34.874862  2.747914  0.011509  0.828554  -27.401608  -0.186512  -42.748813  18.309494  12.193182  71.021878  -5.223697  1.465707  0.128367  -1.510953  0.012907  0.20606  -4.129894  0.048134  0.562185  -4.129894  0.048134  0.562185  -2.060319  24.459667  7.330286  129.784756  43.558549  -142.325477  -20.54521  -1.188491  67.551577  82.07461  2.577242  13.96235  1.158267  1.222016  17.394864  28.625722  57.004426  -17.365062  -11.586742  -8.116794  -79.292067  79.271776  8.074482  -9.291451  -8.150954  4.589646  4.019769  -6.140492  3.389543  3.075191  
0.0  89.887642  0.0  6.053214  22.808453  -89.676129  5.874496  -36.244456  8.51966  -9.920925  39.375638  35.633413  2.882377  -0.048205  0.844999  -27.233988  0.162941  -42.337062  17.503426  12.189433  70.422788  -5.192502  1.494059  0.221192  -1.439494  0.003304  0.187259  -3.93466  0.02017  0.511449  -3.93466  0.02017  0.511448  -2.57758  24.457789  7.681695  130.640864  43.690866  -141.766842  -21.105163  -0.960053  67.393427  81.934699  2.589059  14.385983  0.422588  1.146166  17.639085  29.175273  56.96107  -16.906841  -11.34968  -8.388303  -79.099268  79.283885  8.061158  -9.129666  -8.330831  4.581473  4.043336  -6.275473  3.381941  3.094137  
0.0  89.887642  0.0  5.766504  22.972049  -90.01673  4.749946  -36.170425  9.001474  -9.069533  39.267339  35.900431  3.050967  -0.065717  0.831864  -27.0594  0.609147  -41.9217  16.785024  11.885766  69.975772  -5.225901  1.46024  0.329113  -1.415377  -0.009521  0.180903  -3.868838  -0.01543  0.494843  -3.868838  -0.01543  0.494843  -2.881945  24.400913  8.00586  131.364076  43.639294  -141.291699  -21.150576  -0.851828  67.523089  81.513048  2.78672  14.320128  -0.045626  1.025251  17.874508  29.786756  56.921219  -16.463719  -11.398338  -8.458912  -78.916637  79.346601  8.061845  -9.099735  -8.453971  4.529792  4.087695  -6.367852  3.341766  3.12766  
0.0  89.887642  0.0  5.44188  23.178353  -90.366754  3.373899  -36.05125  9.698341  -7.974399  39.050672  36.150343  3.209713  -0.013782  0.891659  -26.893437  0.974969  -41.55081  16.119027  11.503408  69.629155  -5.281037  1.459373  0.397384  -1.4144  -0.018144  0.231813  -3.866253  -0.036022  0.634449  -3.866253  -0.036022  0.634449  -3.280293  24.259856  7.895893  131.83459  43.498623  -140.946269  -21.20789  -0.909722  67.665122  81.17102  2.975639  14.163306  -0.550863  0.822111  17.681801  30.403882  56.91441  -16.036648  -11.49319  -8.441744  -78.71275  79.357766  8.257123  -9.32565  -8.591754  4.363992  3.966969  -6.469384  3.218168  3.035956  
0.0  89.887642  0.0  5.166826  23.350442  -90.660112  2.202015  -36.001671  10.312441  -7.097148  38.905179  36.279174  3.171713  -0.091998  0.838913  -26.801054  1.210169  -41.270255  15.639745  11.269803  69.354594  -5.253703  1.455623  0.465864  -1.425261  -0.033461  0.292404  -3.896149  -0.074197  0.800909  -3.896149  -0.074197  0.800909  -3.56648  24.202822  7.697376  132.14245  43.344219  -140.742829  -21.182915  -1.084045  67.838591  80.913669  3.106481  13.959644  -0.699509  0.743393  17.490633  30.566533  56.850439  -15.938917  -11.553703  -8.437625  -78.743463  79.470957  8.334011  -9.481682  -8.713836  4.201075  3.798102  -6.558886  3.097566  2.907997  
0.0  89.887642  0.0  5.033989  23.691616  -90.698655  1.496672  -35.988325  10.522088  -6.562016  38.82108  36.381415  3.103587  -0.124044  0.787934  -26.981158  1.321391  -41.202693  15.482894  11.066694  69.138503  -5.311561  1.377092  0.523589  -1.469543  -0.033416  0.323616  -4.017216  -0.07164  0.886226  -4.017215  -0.07164  0.886226  -3.789295  24.17527  7.514531  132.286241  43.237397  -140.58008  -21.179211  -1.334706  67.891584  80.735342  3.193069  13.792178  -0.808877  0.691375  17.277985  30.469704  56.794836  -16.004844  -11.76248  -8.374954  -78.730894  79.546422  8.376832  -9.787915  -8.844677  4.024982  3.632026  -6.655001  2.967056  2.781928  
0.0  89.887642  0.0  5.020679  23.750109  -90.751649  1.607136  -36.059385  10.543111  -6.796971  38.860858  36.117076  3.063159  -0.177037  0.76455  -27.162288  1.307923  -41.28462  15.592783  11.014569  69.046675  -5.292102  1.347624  0.604217  -1.467634  -0.017402  0.351586  -4.011787  -0.026215  0.961673  -4.011787  -0.026215  0.961673  -3.91682  24.175737  7.483496  132.414866  43.182263  -140.432775  -21.106016  -1.496124  67.916094  80.682955  3.248261  13.736403  -0.869375  0.667987  17.171239  30.343171  56.725297  -16.136318  -11.790411  -8.362401  -78.878796  79.683327  8.429588  -9.87619  -8.991676  3.85606  3.528352  -6.76376  2.840993  2.702771  
0.0  89.887642  0.0  5.178605  23.874048  -90.664481  2.058149  -36.038789  10.324498  -7.177017  38.889655  35.920429  3.017961  -0.199198  0.750971  -27.321061  1.347984  -41.354983  15.741167  11.034813  68.90611  -5.22846  1.30905  0.671409  -1.480451  0.02891  0.362458  -4.046131  0.101167  0.988549  -4.046131  0.101167  0.988549  -3.970481  24.112102  7.512942  132.477144  43.212368  -140.311399  -20.992944  -1.578692  67.881519  80.736778  3.260287  13.751004  -0.900117  0.560846  17.124229  29.89264  56.706468  -16.489717  -12.021218  -8.240741  -78.90471  79.742102  8.46404  -10.081369  -9.123979  3.668712  3.45999  -6.861692  2.700712  2.649646  
0.0  89.887642  0.0  5.309452  23.871319  -90.485362  2.755643  -36.078909  9.884193  -7.468478  38.931642  35.834136  2.841712  -0.240063  0.722049  -27.70374  1.180161  -41.658637  16.120584  10.985426  68.832287  -5.292321  1.289238  0.742298  -1.472464  0.062264  0.365087  -4.023798  0.192337  0.993717  -4.023798  0.192337  0.993717  -4.064903  24.075981  7.464638  132.518307  43.23785  -140.261105  -20.792407  -1.631522  67.831568  80.835118  3.237562  13.82584  -0.938981  0.463016  17.032098  29.625766  56.721964  -16.757857  -12.059283  -8.160085  -78.988803  79.785337  8.460671  -10.126954  -9.260646  3.501514  3.37367  -6.962915  2.575823  2.583288  
